<?xml version="1.0" encoding="UTF-8"?><svg id="uuid-282189df-ecba-4a0f-92eb-3c40d92c8e63" xmlns="http://www.w3.org/2000/svg" viewBox="0 0 600 128"><defs><style>.uuid-25839661-bf5a-4be4-99b1-86040b939069{fill:#fff;}</style></defs><g><path class="uuid-25839661-bf5a-4be4-99b1-86040b939069" d="m187.12,110.5h-28.63V21.19h28.63c9.12,0,16.36.76,21.72,2.28,5.36,1.52,9.66,3.94,12.89,7.26,3.23,3.33,5.58,7.81,7.05,13.46,1.47,5.65,2.21,12.84,2.21,21.58,0,15.48-3.47,26.8-10.4,33.97-6.93,7.17-18.09,10.75-33.47,10.75Zm21.51-67.37c-1.8-2.37-4.32-4.06-7.55-5.06-3.23-1-7.88-1.5-13.96-1.5h-11.54v57.83h11.54c10.25,0,17.19-2.09,20.8-6.27,3.61-4.18,5.41-11.63,5.41-22.36,0-5.7-.38-10.35-1.14-13.96-.76-3.61-1.95-6.5-3.56-8.69Z"/><path class="uuid-25839661-bf5a-4be4-99b1-86040b939069" d="m260.75,30.17h-17.52v-14.39h17.52v14.39Zm-.43,80.33h-16.52V40.14h16.52v70.36Z"/><path class="uuid-25839661-bf5a-4be4-99b1-86040b939069" d="m292.37,110.5h-16.52V40.14h15.24l.71,5.27h.43c3.7-2.28,7.24-3.96,10.61-5.06,3.37-1.09,6.67-1.64,9.9-1.64,3.89,0,7.24.59,10.04,1.78,2.8,1.19,5.06,3.02,6.77,5.48h.43c3.51-2.28,7.34-4.06,11.47-5.34,4.13-1.28,8.19-1.92,12.18-1.92,6.84,0,11.96,1.85,15.38,5.56,3.42,3.7,5.13,9.21,5.13,16.52v49.71h-16.52v-47.57c0-3.23-.88-5.6-2.64-7.12-1.76-1.52-4.54-2.28-8.33-2.28-2.28,0-4.61.29-6.98.85-2.37.57-4.56,1.33-6.55,2.28.09.48.14,1,.14,1.57v52.27h-16.52v-47.57c0-3.23-.88-5.6-2.63-7.12-1.76-1.52-4.54-2.28-8.33-2.28-1.99,0-4.11.26-6.34.78-2.23.52-4.58,1.35-7.05,2.49v53.7Z"/><path class="uuid-25839661-bf5a-4be4-99b1-86040b939069" d="m456.88,84.58c0,9.12-2.56,15.72-7.69,19.8-5.13,4.08-13.25,6.12-24.36,6.12h-34.9V21.19h34.9c10.06,0,17.21,1.71,21.44,5.13,4.22,3.42,6.34,9.26,6.34,17.52,0,5.6-.85,9.88-2.56,12.82-1.71,2.94-4.84,5.08-9.4,6.41,5.41.95,9.47,3.2,12.18,6.77,2.71,3.56,4.06,8.47,4.06,14.74Zm-20.08-38.31c0-4.08-.88-6.91-2.64-8.48-1.76-1.57-4.87-2.35-9.33-2.35h-17.8v23.07h17.8c4.27,0,7.34-.95,9.19-2.85,1.85-1.9,2.78-5.03,2.78-9.4Zm3.56,37.18c0-4.37-1.16-7.41-3.49-9.12-2.33-1.71-6.34-2.56-12.04-2.56h-17.8v23.93h17.8c5.7,0,9.71-.9,12.04-2.71,2.33-1.8,3.49-4.99,3.49-9.54Z"/><path class="uuid-25839661-bf5a-4be4-99b1-86040b939069" d="m533.22,75.17c0,13.3-2.54,22.72-7.62,28.27-5.08,5.55-13.74,8.33-25.99,8.33s-21.18-2.73-26.21-8.19c-5.03-5.46-7.55-14.93-7.55-28.42s2.56-22.58,7.69-28.13c5.13-5.56,13.82-8.33,26.07-8.33s21.03,2.73,26.07,8.19c5.03,5.46,7.55,14.88,7.55,28.27Zm-50.85-.14c0,8.74,1.09,14.48,3.28,17.23,2.18,2.75,6.84,4.13,13.96,4.13s11.51-1.4,13.74-4.2c2.23-2.8,3.35-8.52,3.35-17.16s-1.07-14.62-3.2-17.38c-2.14-2.75-6.77-4.13-13.89-4.13s-11.66,1.42-13.89,4.27c-2.23,2.85-3.35,8.59-3.35,17.23Z"/><path class="uuid-25839661-bf5a-4be4-99b1-86040b939069" d="m577.23,73.89l22.5,36.61h-18.23l-14.53-25.21-14.39,25.21h-17.23l22.65-36.61-21.93-33.76h19.37l12.82,22.93,13.53-22.93h17.23l-21.79,33.76Z"/></g><path class="uuid-25839661-bf5a-4be4-99b1-86040b939069" d="m111.74-.22H15.74C6.9-.22-.26,6.94-.26,15.78v96c0,8.84,7.16,16,16,16h96c8.84,0,16-7.16,16-16V15.78C127.74,6.94,120.57-.22,111.74-.22ZM63.74,7.78h48c4.41,0,8,3.59,8,8v96c0,4.41-3.59,8-8,8h-48"/></svg>